PathFileType	4	(X/Y/Z)	Kaydara																																																																																																																									
DataRate	CameraRate	NumFrames	NumMarkers	Units	OrigDataRate	OrigDataStartFrame	OrigNumFrames																																																																																																																					
30	30	4	41	mm	30	116	132																																																																																																																					
Frame#	Time	SALE_LFHD			SALE_RFHD			SALE_LBHD			SALE_RBHD			SALE_LFTShould			SALE_RFTShould			SALE_LRRShould			SALE_RRRShould			SALE_T10			SALE_STRN			SALE_TRUN			SALE_LSHO			SALE_LUPA			SALE_LELB			SALE_LFRM			SALE_LWRA			SALE_LWRB			SALE_LFIN			SALE_RSHO			SALE_RUPA			SALE_RELB			SALE_RFRM			SALE_RWRB			SALE_RFIN			SALE_LFWT			SALE_RFWT			SALE_LBWT			SALE_RBWT			SALE_LTHI			SALE_LKNE			SALE_RWRA			SALE_LSHN			SALE_LANK			SALE_LHEE			SALE_LTOE			SALE_RTHI			SALE_RKNE			SALE_RSHN			SALE_RANK			SALE_RHEE			SALE_RTOE		
		X1	Y1	Z1	X2	Y2	Z2	X3	Y3	Z3	X4	Y4	Z4	X5	Y5	Z5	X6	Y6	Z6	X7	Y7	Z7	X8	Y8	Z8	X9	Y9	Z9	X10	Y10	Z10	X11	Y11	Z11	X12	Y12	Z12	X13	Y13	Z13	X14	Y14	Z14	X15	Y15	Z15	X16	Y16	Z16	X17	Y17	Z17	X18	Y18	Z18	X19	Y19	Z19	X20	Y20	Z20	X21	Y21	Z21	X22	Y22	Z22	X23	Y23	Z23	X24	Y24	Z24	X25	Y25	Z25	X26	Y26	Z26	X27	Y27	Z27	X28	Y28	Z28	X29	Y29	Z29	X30	Y30	Z30	X31	Y31	Z31	X32	Y32	Z32	X33	Y33	Z33	X34	Y34	Z34	X35	Y35	Z35	X36	Y36	Z36	X37	Y37	Z37	X38	Y38	Z38	X39	Y39	Z39	X40	Y40	Z40	X41	Y41	Z41
																																																																																																																												
116	3.833	174.10954	1584.71786	1937.06284	44.13519	1577.51404	1954.01596	156.65344	1549.34525	1809.73083	31.44662	1542.45941	1833.2016	196.46755	1310.90317	1922.4971	52.87955	1303.66119	1941.2851	168.62642	1369.08722	1811.09024	21.43314	1371.08368	1837.86728	88.76273	1217.22046	1754.58511	127.20869	1236.62613	1976.89896	130.39454	1148.89923	2014.70459	292.3801	1344.18152	1831.26205	333.20961	1156.78558	1742.117	325.59704	1054.55391	1704.45801	378.02383	967.10823	1661.30051	412.26261	804.60854	1685.26703	419.095	833.50845	1614.88754	461.36276	788.92563	1622.29889	-61.75412	1336.55655	1891.02219	-108.34771	1100.16373	1851.10229	-136.61455	1010.61684	1914.23813	-125.7229	908.51677	1966.61102	-126.9294	827.33467	2088.69751	-131.89653	835.97473	2155.25986	245.73015	905.04608	1945.22171	-31.11999	910.90324	1928.21747	203.85368	948.55118	1771.87683	30.06872	970.17265	1761.42685	236.26663	576.28876	1909.80225	232.84704	470.34962	2073.74176	-81.08441	876.71341	2122.11411	231.34146	288.51265	2156.38718	224.68504	100.45887	2187.92068	183.6076	28.44344	2148.35617	209.51027	109.59166	2331.99982	-22.09052	687.89192	1733.4285	-5.9189	512.42023	1791.54404	57.3789	327.10129	1719.3956	25.90002	104.2854	1581.97662	35.0285	38.23404	1684.66644	76.30467	64.09948	1498.53149
117	3.867	176.44371	1573.80234	1989.5842	46.54333	1564.60709	2006.21384	159.89847	1536.55991	1862.64191	34.8111	1527.91275	1885.77316	200.16222	1296.06171	1980.72372	56.56174	1293.75839	1997.02087	172.97255	1352.8978	1866.94168	26.08042	1358.25439	1891.94046	92.20336	1200.37727	1814.37729	127.96112	1223.59802	2036.2767	128.55234	1137.85255	2077.41379	293.7191	1328.81714	1885.93506	327.80136	1148.11218	1789.59396	320.68829	1046.6861	1749.32388	370.99422	967.18361	1691.68991	434.36623	811.50871	1702.39578	413.64681	837.50473	1633.50861	463.67443	803.31596	1625.81024	-58.03383	1327.18323	1944.42596	-106.52737	1089.56299	1912.2937	-135.96835	1003.51395	1978.59039	-124.94707	905.79155	2038.68637	-125.12196	834.87404	2168.52768	-131.42051	853.54179	2233.6586	244.09782	889.10789	2011.42151	-34.17749	894.38301	1988.15155	205.46921	934.46716	1836.98517	31.17523	954.97536	1823.72696	241.45538	568.51429	1985.75027	229.67861	466.76517	2148.86093	-81.74913	889.79851	2196.09573	227.88187	276.46725	2225.5867	221.91191	86.27824	2249.89578	180.12169	15.04458	2206.51825	202.55611	91.29066	2393.99567	-21.60877	680.89699	1789.6962	-4.2921	499.02546	1844.99588	60.14083	316.06983	1754.27826	20.95983	111.79508	1593.40302	32.66161	37.51034	1687.86316	67.07613	79.83293	1503.75229
118	3.9	178.27879	1570.86807	2040.69244	47.73046	1556.9342	2054.94095	165.84801	1527.8064	1914.56863	40.4625	1515.13947	1935.39612	206.45695	1288.15521	2040.51987	61.37648	1288.90625	2056.31271	181.18618	1342.86789	1924.72504	33.711	1353.97675	1947.86407	96.07278	1191.10008	1875.5983	131.46955	1219.44923	2096.35345	129.76535	1134.26308	2138.63846	300.47985	1315.86349	1945.95001	330.48607	1140.47607	1846.03226	322.54192	1039.04396	1802.74643	369.66114	964.68491	1738.00934	448.97114	814.25056	1735.97931	411.29539	837.86674	1673.09341	460.85732	814.81888	1652.74857	-52.67829	1324.64752	2000.13901	-99.87909	1085.83328	1968.46741	-132.48949	1001.1116	2036.28448	-122.22611	904.10614	2098.13309	-123.77966	834.82437	2230.07172	-134.78002	858.43025	2293.31451	241.88076	882.11189	2075.10406	-35.8365	880.47264	2052.87674	205.71173	926.84692	1899.14124	25.40289	941.53526	1885.95581	243.20415	567.60479	2055.36346	231.57873	461.15154	2212.61551	-83.95742	893.0867	2256.18118	223.0467	270.74301	2277.45529	216.35719	82.73035	2287.25708	177.97243	27.94995	2226.19781	196.97044	48.94066	2422.6712	-24.96299	660.92773	1856.76788	2.33808	482.16209	1915.401	61.52783	304.41509	1805.78766	14.64102	127.36978	1613.47076	29.39076	35.34137	1694.57642	57.84352	109.20355	1520.04715
119	3.933	181.31622	1579.76868	2090.05264	51.65056	1562.64023	2100.87021	174.36962	1530.271	1966.46072	49.04732	1514.69467	1983.83286	209.54351	1290.52414	2101.03027	66.93194	1297.66968	2116.19141	187.52525	1348.57437	1988.12546	39.44719	1363.74298	2012.0929	95.62572	1201.8676	1933.5022	134.1518	1221.87073	2155.7843	130.23463	1136.6774	2197.26563	308.09193	1314.15634	2010.58685	339.43447	1136.37764	1911.88019	327.71358	1037.4485	1865.7132	373.65318	962.48215	1802.37991	454.35871	812.58743	1795.94193	411.15551	836.65436	1737.05872	459.10942	823.76915	1712.59171	-47.65449	1335.48492	2065.78705	-94.86668	1097.88887	2024.90524	-127.42764	1009.60281	2087.67532	-117.35044	908.44925	2143.21121	-120.61757	830.70084	2271.24512	-138.10974	851.31981	2333.40286	243.14333	896.81061	2129.95956	-33.34183	877.88643	2112.34512	197.34144	937.01622	1953.74512	18.12417	937.1096	1942.99866	247.33831	578.63407	2114.41071	224.2252	477.68169	2274.00391	-84.79536	889.14742	2302.63031	218.21875	269.24257	2317.40311	215.62229	81.87024	2290.7373	178.81067	29.11506	2235.35431	185.34142	39.63018	2433.6824	-16.12786	640.14565	1933.03696	5.37953	467.01912	2009.87518	57.08909	293.17978	1882.26822	6.61969	156.56238	1659.02008	27.22841	35.32983	1710.3009	48.75436	161.10666	1567.14233
